<svg height='100px' width='100px'  fill="#1a1a1a" xmlns="http://www.w3.org/2000/svg" xmlns:xlink="http://www.w3.org/1999/xlink" version="1.1" x="0px" y="0px" viewBox="0 0 100 100" style="enable-background:new 0 0 100 100;" xml:space="preserve"><path d="M92,81.2c1,1,1,2.5,0,3.5l-7.5,7.5c-1,1-2.5,1-3.5,0L52.4,63.4l11-11L92,81.2z"></path><path d="M12.8,19.4l-6.4-8.8l4.5-4.5l8.8,6.4l3.5,5.8l-0.5,0.5l14.9,15.1l5-5l4.4,4.4l-1.2,1.2l1.9,1.9l-11,11l-1.9-2l-1.2,1.2  l-4.4-4.4l5-5L19.1,22.3l-0.5,0.5L12.8,19.4z"></path><path d="M34.8,89.9c-4.7,4.7-11.4,6.2-17.3,4.4l8.2-8.2l-2.5-9.2L14,74.4l-8.2,8.2C4,76.6,5.4,69.9,10.1,65.2  c4.8-4.8,11.7-6.2,17.8-4.2L61,27.9c-2-6-0.6-13,4.2-17.8C69.9,5.4,76.6,4,82.6,5.7L74.3,14l2.5,9.2l9.2,2.5l8.2-8.2  c1.8,5.9,0.3,12.6-4.4,17.3C85.1,39.6,78.1,41,72.1,39L39,72.1C41,78.2,39.6,85.1,34.8,89.9z"></path></svg>