<svg height='100px' width='100px'  fill="#39963b" xmlns="http://www.w3.org/2000/svg" xmlns:xlink="http://www.w3.org/1999/xlink" version="1.1" x="0px" y="0px" viewBox="0 0 60 60" style="enable-background:new 0 0 60 60;" xml:space="preserve"><path d="M46.0805664,37.5380859l-6.9827271,2.7192993c0.0097656-0.1077271,0.0325317-0.2116089,0.0325317-0.3218384  c0-1.984375-1.6142578-3.5986328-3.5981445-3.5986328h-6.0400391c-2.2358398-2.2460938-5.3012695-3.5263672-8.480957-3.5263672  h-7.3129883v-1.1611328c0-0.9667969-0.7866211-1.7539062-1.7539062-1.7539062H6.7539062  C5.7866211,29.8955078,5,30.6826172,5,31.6494141v16.7333984c0,0.9667969,0.7866211,1.7539062,1.7539062,1.7539062h5.1904297  c0.9672852,0,1.7539062-0.7871094,1.7539062-1.7539062V47.164978l12.234375,4.3565063  c1.3125,0.4667969,2.6933594,0.6992188,4.0732422,0.6992188c1.8251953,0,3.6479492-0.40625,5.3066406-1.2080078  l19.1230469-9.2480469c0.2597656-0.1259766,0.4526367-0.3574219,0.5288086-0.6367188  c0.0761719-0.2783203,0.0283203-0.5761719-0.1313477-0.8164062C52.9438477,37.4658203,49.2636719,36.3007812,46.0805664,37.5380859z   M11.6982422,48.1367188H7V31.8955078h4.6982422V48.1367188z M34.4414062,49.2119141  c-2.4335938,1.1777344-5.2895508,1.3330078-7.8378906,0.4248047l-12.9052734-4.5953979V34.8105469h7.3129883  c2.7719727,0,5.4399414,1.1679688,7.3198242,3.2050781c0.1894531,0.2050781,0.4555664,0.3212891,0.7348633,0.3212891h6.4663086  c0.8813477,0,1.5981445,0.7167969,1.5981445,1.5986328c0,0.6495361-0.3903809,1.2070312-0.9474487,1.4569702l-0.0866089,0.0337524  c-0.1760254,0.0668945-0.3648682,0.1079102-0.5640869,0.1079102H23.8203125c-0.5522461,0-1,0.4472656-1,1s0.4477539,1,1,1  h11.7119141c0.3615723,0,0.7038574-0.0697021,1.0333252-0.1694336c0.038208-0.0098877,0.0769043-0.0053101,0.114624-0.0200195  l0.1998291-0.0778198c0.0257568-0.010437,0.052063-0.019104,0.0775146-0.0301514l9.8486328-3.8353882  c1.9418945-0.7539062,4.140625-0.2783203,5.6079102,1.1191406L34.4414062,49.2119141z"></path><path d="M35.328125,7.7734375c-6.6542969,0-12.0678711,5.4140625-12.0678711,12.0683594s5.4135742,12.0673828,12.0678711,12.0673828  s12.0683594-5.4130859,12.0683594-12.0673828S41.9824219,7.7734375,35.328125,7.7734375z M35.328125,29.9091797  c-5.5512695,0-10.0678711-4.5166016-10.0678711-10.0673828c0-5.5517578,4.5166016-10.0683594,10.0678711-10.0683594  c5.5517578,0,10.0683594,4.5166016,10.0683594,10.0683594C45.3964844,25.3925781,40.8798828,29.9091797,35.328125,29.9091797z"></path><path d="M35.3162231,15.2385254c0.0047607,0.000061,0.008606,0.0026855,0.0133667,0.0026855  c0.0043945,0,0.0079956-0.0024414,0.0123901-0.0025024c0.9870605,0.0076294,1.7883911,0.8119507,1.7883911,1.800354  c0,0.5527344,0.4477539,1,1,1s1-0.4472656,1-1c0-1.7478638-1.1917114-3.208313-2.8007812-3.651001v-0.067749  c0-0.5527344-0.4477539-1-1-1s-1,0.4472656-1,1v0.0668945c-1.6101685,0.4417114-2.8032227,1.9030151-2.8032227,3.6518555  c0,2.0966797,1.7055664,3.8027344,3.8017578,3.8027344c0.9936523,0,1.8022461,0.8085938,1.8022461,1.8017578  s-0.8085938,1.8017578-1.8022461,1.8017578s-1.8017578-0.8085938-1.8017578-1.8017578c0-0.5527344-0.4477539-1-1-1s-1,0.4472656-1,1  c0,1.7488403,1.1930542,3.210144,2.8032227,3.6518555v0.0708008c0,0.5527344,0.4477539,1,1,1s1-0.4472656,1-1v-0.0716553  c1.6090698-0.442688,2.8007812-1.9031372,2.8007812-3.651001c0-2.0966797-1.7055664-3.8017578-3.8022461-3.8017578  c-0.9936523,0-1.8017578-0.8085938-1.8017578-1.8027344C33.5263672,16.0499878,34.3282471,15.2451172,35.3162231,15.2385254z"></path></svg>