<svg height='100px' width='100px'  fill="#4c884a" xmlns="http://www.w3.org/2000/svg" xmlns:xlink="http://www.w3.org/1999/xlink" version="1.1" x="0px" y="0px" viewBox="0 0 60 60" style="enable-background:new 0 0 60 60;" xml:space="preserve"><path d="M48.291687,20.916687c-1.4745483-0.541626-3.1277466,0.2144165-3.6859131,1.6815186l-2.2546387,5.9354858  c-0.5175781-0.4998169-1.2010498-0.7371216-1.9180298-0.7489624c-0.7375488,0.017334-1.4170532,0.3271484-1.9141235,0.8719482  l-7.0285034,7.7052612c-0.6194458,0.6792603-1.1148071,1.4458618-1.4905396,2.2648926  c-0.3757935-0.8188477-0.8711548-1.5854492-1.4906006-2.2648926l-7.0285034-7.7052612  c-0.4970703-0.5447998-1.1765747-0.8546143-1.9141235-0.8719482c-0.7177734,0.0118408-1.4004517,0.2491455-1.9180298,0.7489624  l-2.2546387-5.9354858c-0.557373-1.4678955-2.2125244-2.2231445-3.6863403-1.6815186  c-1.4371338,0.5274048-2.2113037,2.0875244-1.7623291,3.5514526l3.8222656,12.449585  c0.0394287,0.1277466,0.1096191,0.2435913,0.2050171,0.3374023l7.427002,7.322937v4.7971191  c0,0.446228,0.3614502,0.807251,0.807251,0.807251h7.7932129h7.7927856c0.4458008,0,0.807251-0.3610229,0.807251-0.807251V44.578064  l7.427002-7.322937c0.0953979-0.093811,0.1655884-0.2096558,0.2050171-0.3374023l3.8222656-12.449585  C50.5037842,23.0042114,49.7296753,21.4440918,48.291687,20.916687z M22.7737427,43.6659546l-7.5223999-7.4175415  l-3.7623901-12.2540283c-0.1975098-0.644104,0.1430664-1.3299561,0.7749634-1.5625  c0.6499634-0.2357178,1.3756104,0.0953979,1.6204224,0.7402344l3.0454102,8.0159302  c0.085083,0.2979736,0.2242432,0.5856934,0.4182129,0.8505859l4.2077637,5.7470703  c0.2629395,0.3594971,0.7678833,0.4390869,1.1281128,0.1741943c0.3594971-0.2633057,0.4379272-0.7686157,0.1742554-1.1281128  l-4.2078247-5.7470093c-0.0540161-0.0741577-0.0973511-0.1521606-0.1300659-0.2341919  c-0.0083008-0.0362549-0.0192871-0.0725098-0.0327148-0.1087646l-0.0137939-0.0354614  c-0.085144-0.3492432,0.0126343-0.7276611,0.2822266-0.9972534c0.2069702-0.206543,0.4993896-0.3169556,0.7733765-0.3098145  c0.2924805,0.0062866,0.5617065,0.1292725,0.7587891,0.3452759l7.0285034,7.7053223  c1.2097168,1.3275757,1.8762207,3.0461426,1.8762207,4.8411865v6.2768555h-6.1786499v-4.3272705  C23.0141602,44.0246582,22.9274292,43.8173218,22.7737427,43.6659546z M48.5108643,23.9935913l-3.7623901,12.2548218  l-7.5223999,7.4175415c-0.1536865,0.1513672-0.2404175,0.3587036-0.2404175,0.574707v4.3272705H30.807373v-6.2768555  c0-1.7950439,0.6661377-3.5144043,1.8758545-4.8411865l7.0285034-7.7053223  c0.1970825-0.2160034,0.4663086-0.3389893,0.7587891-0.3452759c0.2759399-0.0055542,0.5664063,0.1032715,0.7733765,0.3098145  c0.2692261,0.2695923,0.3670044,0.6472168,0.2825928,0.9956665l-0.0141602,0.0370483  c-0.0137939,0.0370483-0.0248413,0.0733032-0.0330811,0.1103516c-0.0327759,0.0812378-0.0756836,0.1592407-0.1293335,0.232605  l-4.2081909,5.7470093c-0.2636719,0.3594971-0.1856689,0.8648071,0.1742554,1.1281128  c0.3598633,0.2640991,0.8648071,0.1853027,1.1281128-0.1741943l4.2085571-5.7470703  c0.1939697-0.2648926,0.3327026-0.5541992,0.4182129-0.8521729l3.0442505-8.0143433  c0.2451782-0.6456299,0.9732056-0.9783325,1.6204224-0.7402344C48.3681641,22.6644287,48.7087402,23.3502808,48.5108643,23.9935913z  "></path><path d="M30.2232056,30.9932861c0.4458008,0,0.807251-0.3610229,0.807251-0.807251V19.2098999  c3.2381592,0.8971558,6.1073608,0.6968994,8.543335-0.5991211c4.2397461-2.2570801,5.5558472-6.9950562,5.6098633-7.1952515  c0.0559692-0.2089233,0.026001-0.4312134-0.0831909-0.618103c-0.1091919-0.1860352-0.2888794-0.3208618-0.4985962-0.3744507  c-4.1845703-1.0587158-7.7045288-0.7276611-10.4621582,0.9830933c-3.1882935,1.9784546-4.3239136,5.1734009-4.6190186,6.206543  c-0.5794067-0.8034058-1.3623047-1.6240234-2.4232788-2.2821655c-2.2905273-1.4221802-5.2081909-1.6981201-8.6694336-0.8214722  c-0.2092896,0.0536499-0.3890381,0.1884155-0.49823,0.3744507c-0.1091919,0.1868896-0.1391602,0.4091797-0.0831909,0.618103  c0.0449219,0.1663208,1.1375732,4.1001587,4.6607056,5.975647c1.1994629,0.6385498,2.5234985,0.9578247,3.961853,0.9578247  c0.9352417,0,1.9187622-0.1362305,2.9468384-0.40625v8.1572876C29.4159546,30.6322632,29.7774048,30.9932861,30.2232056,30.9932861z   M35.0088501,12.7675171c2.1849365-1.3480835,4.9851074-1.6744385,8.3355713-0.9783325  c-0.5321045,1.3283691-1.8805542,3.9921875-4.541626,5.4025269c-2.1112061,1.1186523-4.6563721,1.2503052-7.5756226,0.395752  C31.6347656,16.453064,32.6934814,14.1959839,35.0088501,12.7675171z M23.2782593,20.0581665  c-2.0335083-1.0769043-3.1143799-3.0714111-3.5818481-4.180603c2.6224365-0.5147705,4.8175659-0.2427979,6.5322266,0.8135376  c1.7635498,1.0863647,2.6188965,2.7758179,2.9803467,3.7218018C26.9243774,21.0530396,24.9314575,20.934021,23.2782593,20.0581665z"></path></svg>