<svg height='100px' width='100px'  fill="#3BB300" xmlns="http://www.w3.org/2000/svg" xmlns:xlink="http://www.w3.org/1999/xlink" version="1.1" x="0px" y="0px" viewBox="0 0 100 100" enable-background="new 0 0 100 100" xml:space="preserve"><path fill="#3BB300" d="M95.166,50.903C95.166,26.238,75.1,6.17,50.434,6.17c-24.666,0-44.733,20.067-44.733,44.733  c0,16.389,8.947,31.448,23.35,39.302c1.495,0.814,5.541,2.775,9.806,2.775c1.904,0,3.853-0.391,5.636-1.45  c4.127-2.45,6.202-7.64,6.22-15.749s-0.278-12.698,0.88-14.38c1.516-2.2,8.57-1.678,14.769-5.697  c9.03-5.854,9.183-22.25,3.904-30.028c0.045,3.118-4.107,6.871-7.568,9.167C48.912,43.99,49.341,58.09,49.065,61.124  c-0.829-4.071-3.68-15.59-13.201-20.764c-3.32-1.803-8.382-3.166-9.186-6.394c-4.182,5.708-1.51,16.896,5.676,21.233  c5.457,3.299,10.289,3.614,12.056,4.628c3.859,2.213,2.865,9.504,2.842,16.108s-1.544,10.854-4.525,12.624  c-3.343,1.985-8.403,0.584-12.023-1.389C17.413,79.924,9.157,66.026,9.157,50.903c0-22.76,18.517-41.277,41.277-41.277  c22.76,0,41.277,18.517,41.277,41.277c0,8.73-4.122,16.183-8.883,20.239c-6.672-7.354-13.842-3.695-17.822-0.354l2.309,2.75  c-0.03,0.021-0.067,0.028-0.097,0.053l-5.396,4.693c-0.602,0.506-0.68,1.403-0.175,2.005c0.282,0.335,0.685,0.508,1.091,0.508  c0.323,0,0.647-0.109,0.914-0.333l5.396-4.693c0.029-0.024,0.042-0.06,0.068-0.086l7.799,9.288c-0.03,0.021-0.067,0.028-0.097,0.053  l-5.398,4.691c-0.602,0.505-0.68,1.402-0.175,2.005c0.281,0.335,0.685,0.508,1.091,0.508c0.322,0,0.647-0.109,0.914-0.333  l5.398-4.691c0.029-0.024,0.042-0.06,0.069-0.086l2.352,2.801c3.708-3.113,8.168-8.905,3.835-16.029  C90.404,69.244,95.166,60.769,95.166,50.903z"></path></svg>