<svg height='100px' width='100px'  fill="#090760" xmlns="http://www.w3.org/2000/svg" xmlns:xlink="http://www.w3.org/1999/xlink" xml:space="preserve" version="1.1" style="shape-rendering:geometricPrecision;text-rendering:geometricPrecision;image-rendering:optimizeQuality;" viewBox="0 0 60000 60000" x="0px" y="0px" fill-rule="evenodd" clip-rule="evenodd"><defs><style type="text/css">
   
    .fil0 {fill:#090760;fill-rule:nonzero}
   
  </style></defs><g><path class="fil0" d="M9200 51317l1770 0 0 -2226c0,-221 179,-400 400,-400l1612 0 1494 -23314c-478,331 -1051,524 -1669,524 -832,0 -1585,-351 -2130,-918 -541,-563 -876,-1339 -876,-2194 0,-855 335,-1631 876,-2194 40,-42 82,-83 124,-122l-2660 0c-221,0 -400,-179 -400,-400l0 -2771 -1759 0c-221,0 -400,-179 -400,-400l0 -1008c0,-620 98,-1018 350,-1359 240,-323 589,-544 1114,-835l0 0 21558 -11804 6 -3c433,-240 913,-360 1391,-360 478,0 958,120 1391,360l0 0 21553 11801 11 6c525,291 874,512 1114,835 252,340 350,738 350,1359l0 1008c0,221 -179,400 -400,400l-1768 0 0 2771c0,221 -179,400 -400,400l-2613 0c43,40 84,80 124,122 541,563 876,1339 876,2194 0,855 -335,1631 -876,2194 -545,567 -1298,918 -2130,918 -647,0 -1246,-212 -1736,-572l1524 23362 1715 0c221,0 400,179 400,400l0 2226 1658 0c221,0 400,179 400,400l0 6350c0,221 -179,400 -400,400l-41593 0c-221,0 -400,-179 -400,-400l0 -6350c0,-221 179,-400 400,-400zm17438 -45020c120,-67 272,-24 339,97 67,120 24,272 -97,339l-9684 5398c-120,67 -272,24 -339,-97 -67,-120 -24,-272 97,-339l9684 -5398zm7117 436c-120,-67 -164,-219 -97,-339 67,-120 219,-164 339,-97l9684 5398c120,67 164,219 97,339 -67,120 -219,164 -339,97l-9684 -5398zm-25672 9770c19,-3 38,-4 58,-4l43711 0c20,0 39,1 58,4l1710 0 0 -608c0,-438 -53,-698 -191,-884 -150,-202 -430,-375 -861,-614l-6 -3 -21558 -11804 0 0c-309,-171 -655,-257 -1003,-257 -348,0 -694,86 -1003,257l-11 6 -21553 11801 0 0c-431,239 -711,411 -861,614 -137,185 -191,445 -191,884l0 608 1702 0zm39089 3971l-8107 0c-20,3 -40,4 -60,4 -607,0 -1157,256 -1555,671 -203,212 -367,464 -480,746 0,88 -29,174 -82,243 -58,207 -89,426 -89,653 0,241 35,472 100,690 37,56 60,122 65,190 113,287 279,545 486,761 398,414 948,671 1555,671 607,0 1157,-256 1555,-671 402,-418 651,-999 651,-1641 0,-221 179,-400 400,-400 221,0 400,179 400,400 0,620 -176,1199 -479,1685l-1552 24217 6240 0 -1585 -24307c-1,-11 -1,-21 -1,-31 -259,-460 -407,-994 -407,-1563 0,-221 179,-400 400,-400 221,0 400,179 400,400 0,643 249,1223 651,1641 398,414 948,671 1555,671 607,0 1157,-256 1555,-671 402,-418 651,-999 651,-1641 0,-643 -249,-1223 -651,-1641 -398,-414 -948,-671 -1555,-671 -20,0 -40,-2 -60,-4zm-10173 0l-883 0c165,153 313,324 442,511 96,-138 202,-268 317,-389 40,-42 82,-83 124,-122zm-865 1392c-163,-391 -426,-725 -755,-968 -357,-264 -795,-419 -1269,-419 -20,0 -40,-2 -60,-4l-8107 0c-20,3 -40,4 -60,4 -450,0 -868,140 -1216,381 -336,233 -608,560 -781,945 100,310 155,642 155,986 0,345 -54,677 -155,987 174,386 449,714 788,948 346,238 761,376 1209,376 607,0 1157,-256 1555,-671 402,-418 651,-999 651,-1641 0,-221 179,-400 400,-400 221,0 400,179 400,400 0,620 -176,1199 -479,1685l-1552 24217 6240 0 -1585 -24307c-1,-11 -1,-21 -1,-31 -259,-460 -407,-994 -407,-1563 0,-221 179,-400 400,-400 221,0 400,179 400,400 0,643 249,1223 651,1641 398,414 948,671 1555,671 471,0 907,-154 1264,-416 332,-243 597,-579 760,-972 -88,-292 -135,-602 -135,-924 0,-322 47,-632 135,-925zm423 2730c-196,284 -437,533 -712,734 -491,360 -1090,572 -1736,572 -647,0 -1246,-212 -1736,-572l1524 23362 1539 0c221,0 400,179 400,400l0 2226 1650 0 0 -2226c0,-221 179,-400 400,-400l1293 0 1494 -23314c-478,331 -1051,524 -1669,524 -832,0 -1585,-351 -2130,-918 -116,-120 -222,-250 -317,-389zm-12680 -4122l-837 0c43,40 84,80 124,122 106,111 205,230 294,356 123,-174 264,-334 419,-478zm-418 4154c-90,126 -188,245 -295,356 -545,567 -1298,918 -2130,918 -647,0 -1246,-212 -1736,-572l1524 23362 1396 0c221,0 400,179 400,400l0 2226 1571 0 0 -2226c0,-221 179,-400 400,-400l1470 0 1494 -23314c-478,331 -1051,524 -1669,524 -613,0 -1185,-191 -1662,-520 -294,-203 -553,-458 -762,-754zm-9677 24064l6240 0 -1585 -24307c-1,-11 -1,-21 -1,-31 -259,-460 -407,-994 -407,-1563 0,-221 179,-400 400,-400 221,0 400,179 400,400 0,643 249,1223 651,1641 398,414 948,671 1555,671 607,0 1157,-256 1555,-671 402,-418 651,-999 651,-1641 0,-643 -249,-1223 -651,-1641 -398,-414 -948,-671 -1555,-671 -20,0 -40,-2 -60,-4l-8107 0c-20,3 -40,4 -60,4 -607,0 -1157,256 -1555,671 -402,418 -651,999 -651,1641 0,643 249,1223 651,1641 398,414 948,671 1555,671 607,0 1157,-256 1555,-671 402,-418 651,-999 651,-1641 0,-221 179,-400 400,-400 221,0 400,179 400,400 0,620 -176,1199 -479,1685l-1552 24217zm34552 800l-10048 0 0 1766 10048 0 0 -1766zm-13298 0l-10048 0 0 1766 10048 0 0 -1766zm-13219 0l-10048 0 0 1766 10048 0 0 -1766zm29634 -32194l-42911 0 0 2375 42911 0 0 -2375zm-1059 34819l-40793 0 0 5550 40793 0 0 -5550z"></path></g></svg>