<svg height='100px' width='100px'  fill="#1A1A1A" xmlns="http://www.w3.org/2000/svg" data-name="Layer 1" viewBox="0 0 100 100" x="0px" y="0px"><title>Artboard 16</title><path d="M87.18,97.63H75.31A5.35,5.35,0,0,1,70,92.28V24.56a5.35,5.35,0,0,1,5.35-5.35H87.18a5.35,5.35,0,0,1,5.35,5.35V92.28A5.35,5.35,0,0,1,87.18,97.63Zm-72.63,0H26.42a5.35,5.35,0,0,0,5.35-5.35V76a5.35,5.35,0,0,0-5.35-5.35H14.55A5.35,5.35,0,0,0,9.2,76V92.28A5.35,5.35,0,0,0,14.55,97.63Zm47.59-38V92.28a5.35,5.35,0,0,1-5.35,5.35H44.93a5.35,5.35,0,0,1-5.34-5.35V59.63a5.35,5.35,0,0,1,5.34-5.34H56.8A5.35,5.35,0,0,1,62.14,59.63Zm-7.45,2.11H47V90.18h7.66ZM9.14,46.09l10.4-10.41A22.22,22.22,0,0,1,23,8.87h0A22.2,22.2,0,1,1,27.6,43.75L17.2,54.15a5.69,5.69,0,1,1-8.05-8.05ZM28.68,34.61a14.2,14.2,0,1,0,0-20.1A14.24,14.24,0,0,0,28.68,34.61Z"></path></svg>