<svg height='100px' width='100px'  fill="#045d0a" xmlns="http://www.w3.org/2000/svg" xmlns:xlink="http://www.w3.org/1999/xlink" version="1.1" x="0px" y="0px" viewBox="0 0 64 64" style="enable-background:new 0 0 64 64;" xml:space="preserve"><path d="M48.052,10.738c-0.119,0.355-0.029,0.748,0.232,1.016l1.647,1.688l-0.391,2.396c-0.062,0.378,0.098,0.758,0.411,0.979  c0.313,0.221,0.726,0.242,1.06,0.058L53,15.776l1.988,1.099C55.14,16.958,55.306,17,55.472,17c0.202,0,0.404-0.062,0.576-0.183  c0.313-0.22,0.473-0.601,0.411-0.979l-0.391-2.396l1.647-1.688c0.262-0.268,0.352-0.66,0.232-1.016s-0.427-0.615-0.797-0.671  l-2.236-0.342l-1.009-2.15C53.741,7.224,53.388,7,53,7s-0.741,0.224-0.905,0.575l-1.009,2.15l-2.236,0.342  C48.479,10.124,48.171,10.383,48.052,10.738z M51.915,11.622c0.33-0.051,0.613-0.262,0.754-0.564L53,10.354l0.331,0.705  c0.142,0.302,0.424,0.513,0.754,0.564l0.84,0.128l-0.641,0.657c-0.222,0.227-0.322,0.546-0.271,0.859l0.141,0.862l-0.67-0.37  c-0.15-0.083-0.317-0.125-0.484-0.125s-0.333,0.042-0.484,0.125l-0.67,0.37l0.141-0.862c0.051-0.313-0.049-0.632-0.271-0.859  l-0.641-0.657L51.915,11.622z"></path><path d="M26,26c-6.617,0-12,5.383-12,12s5.383,12,12,12s12-5.383,12-12S32.617,26,26,26z M20.297,46.203  c0.47-1.49,1.485-2.717,2.811-3.45C23.444,44.042,24.608,45,26,45c1.396,0,2.562-0.962,2.895-2.255  c0.488,0.27,0.943,0.607,1.348,1.012c0.687,0.687,1.179,1.524,1.468,2.441C30.09,47.33,28.123,48,26,48  C23.88,48,21.916,47.333,20.297,46.203z M22.027,36.268C23.205,35.451,24.563,35,26,35s2.795,0.451,3.973,1.268  C29.832,38.347,28.114,40,26,40S22.168,38.347,22.027,36.268z M22.839,33.577C23.571,32.625,24.709,32,26,32  s2.429,0.625,3.161,1.577C28.16,33.2,27.097,33,26,33S23.84,33.2,22.839,33.577z M26,42c0.333,0,0.66,0.033,0.983,0.086  C26.937,42.595,26.521,43,26,43c-0.521,0-0.936-0.405-0.982-0.913C25.339,42.033,25.666,42,26,42z M33.311,44.8  c-0.397-0.908-0.943-1.746-1.654-2.457c-0.627-0.627-1.343-1.129-2.115-1.511C31.029,39.738,32,37.983,32,36c0-3.309-2.691-6-6-6  s-6,2.691-6,6c0,1.985,0.973,3.743,2.463,4.836c-1.668,0.827-3.021,2.221-3.784,3.954C17.022,43.004,16,40.622,16,38  c0-5.514,4.486-10,10-10s10,4.486,10,10C36,40.627,34.974,43.014,33.311,44.8z"></path><path d="M43.854,41.241l0.25-0.063c0.402-0.102,0.699-0.44,0.748-0.852C44.951,39.472,45,38.711,45,38s-0.049-1.472-0.149-2.326  c-0.048-0.412-0.346-0.75-0.748-0.852l-0.249-0.063c-1.311-0.331-2.66-0.672-3.492-1.044c-0.089-0.302-0.183-0.591-0.284-0.87  c0.463-0.837,1.399-1.975,2.308-3.079l0.083-0.101c0.26-0.316,0.302-0.759,0.104-1.118c-0.718-1.305-1.607-2.543-2.642-3.683  c-0.284-0.312-0.73-0.412-1.122-0.252l-0.131,0.054c-1.328,0.548-2.812,1.161-3.722,1.313c-0.161-0.12-0.324-0.236-0.488-0.35  c-0.145-0.922-0.03-2.566,0.073-4.037l0.012-0.17c0.029-0.411-0.197-0.797-0.57-0.974c-1.391-0.658-2.819-1.139-4.246-1.43  c-0.409-0.083-0.851,0.129-1.07,0.488c-0.792,1.294-1.756,2.873-2.441,3.499c-0.149-0.008-0.302-0.008-0.451,0  c-0.684-0.626-1.649-2.206-2.458-3.528c-0.22-0.359-0.639-0.545-1.052-0.458c-1.426,0.29-2.854,0.771-4.246,1.43  c-0.373,0.176-0.599,0.562-0.57,0.974l0.012,0.171c0.103,1.47,0.218,3.113,0.073,4.036c-0.165,0.113-0.328,0.23-0.489,0.35  c-0.911-0.152-2.398-0.767-3.729-1.317l-0.123-0.051c-0.39-0.159-0.838-0.06-1.122,0.252c-1.036,1.14-1.925,2.379-2.643,3.683  c-0.198,0.359-0.156,0.802,0.104,1.118l0.08,0.097c0.91,1.105,1.848,2.245,2.311,3.083c-0.101,0.278-0.195,0.567-0.284,0.87  c-0.833,0.373-2.186,0.715-3.499,1.047l-0.242,0.061c-0.402,0.102-0.699,0.44-0.748,0.852C7.049,36.528,7,37.289,7,38  s0.049,1.472,0.149,2.326c0.048,0.412,0.346,0.75,0.748,0.853l0.234,0.059c1.316,0.332,2.671,0.674,3.506,1.048  c0.089,0.302,0.183,0.591,0.284,0.87c-0.463,0.837-1.399,1.975-2.308,3.079l-0.083,0.101c-0.26,0.316-0.302,0.759-0.104,1.118  c0.718,1.305,1.607,2.543,2.642,3.683c0.284,0.312,0.733,0.414,1.122,0.252l0.128-0.053c1.329-0.549,2.813-1.162,3.724-1.314  c0.16,0.12,0.323,0.237,0.488,0.35c0.145,0.923,0.03,2.566-0.073,4.036l-0.012,0.171c-0.029,0.411,0.197,0.797,0.57,0.974  c1.391,0.658,2.819,1.139,4.246,1.43c0.412,0.083,0.852-0.129,1.07-0.488c0.792-1.294,1.756-2.873,2.441-3.499  c0.149,0.008,0.302,0.008,0.451,0c0.685,0.627,1.651,2.208,2.459,3.528C28.869,56.823,29.194,57,29.538,57  c0.066,0,0.133-0.006,0.199-0.02c1.426-0.29,2.854-0.771,4.246-1.43c0.373-0.176,0.599-0.562,0.57-0.974l-0.012-0.165  c-0.103-1.472-0.218-3.118-0.073-4.042c0.165-0.113,0.328-0.23,0.489-0.35c0.91,0.152,2.395,0.765,3.724,1.314l0.128,0.053  c0.392,0.163,0.839,0.061,1.122-0.252c1.036-1.14,1.925-2.378,2.643-3.682c0.197-0.359,0.156-0.802-0.104-1.118l-0.086-0.104  c-0.908-1.103-1.843-2.239-2.305-3.076c0.101-0.279,0.195-0.567,0.284-0.87C41.194,41.913,42.543,41.572,43.854,41.241z   M38.069,43.596c0.427,1.004,1.371,2.201,2.416,3.475c-0.46,0.761-0.988,1.496-1.576,2.194c-1.62-0.665-3.126-1.246-4.217-1.279  c-0.232-0.014-0.465,0.069-0.65,0.214c-0.323,0.255-0.658,0.495-1.004,0.719c-0.199,0.129-0.346,0.324-0.415,0.552  c-0.32,1.062-0.237,2.737-0.114,4.55c-0.825,0.353-1.659,0.636-2.493,0.845c-1.012-1.645-1.979-3.125-2.941-3.737  c-0.161-0.102-0.347-0.156-0.537-0.156c-0.013,0-0.025,0-0.038,0l-0.246,0.015c-0.169,0.012-0.339,0.012-0.508,0L25.5,50.973  c-0.202-0.007-0.403,0.047-0.575,0.156c-0.958,0.61-1.921,2.08-2.941,3.737c-0.834-0.21-1.669-0.493-2.494-0.845  c0.124-1.813,0.207-3.488-0.114-4.55c-0.068-0.227-0.215-0.422-0.415-0.551c-0.346-0.224-0.681-0.463-1.003-0.718  c-0.185-0.147-0.422-0.229-0.651-0.215c-1.091,0.033-2.597,0.614-4.217,1.279c-0.587-0.698-1.115-1.433-1.575-2.195  c1.044-1.274,1.989-2.471,2.416-3.475c0.104-0.244,0.106-0.518,0.008-0.764c-0.185-0.459-0.344-0.948-0.489-1.495  c-0.068-0.257-0.236-0.476-0.466-0.609c-0.919-0.532-2.36-0.922-3.918-1.318C9.021,38.906,9,38.44,9,38s0.021-0.906,0.065-1.411  c1.559-0.396,3-0.786,3.918-1.318c0.23-0.133,0.397-0.352,0.466-0.609c0.145-0.548,0.305-1.037,0.489-1.495  c0.099-0.245,0.096-0.52-0.007-0.764c-0.426-1.004-1.371-2.201-2.416-3.475c0.46-0.762,0.988-1.496,1.575-2.195  c1.621,0.666,3.126,1.247,4.218,1.279c0.229,0.006,0.465-0.069,0.65-0.214c0.323-0.255,0.658-0.495,1.004-0.719  c0.199-0.129,0.346-0.324,0.415-0.551c0.32-1.062,0.238-2.737,0.114-4.55c0.825-0.353,1.659-0.636,2.494-0.845  c1.012,1.645,1.978,3.125,2.941,3.737c0.172,0.109,0.371,0.164,0.575,0.156l0.245-0.015c0.168-0.012,0.34-0.012,0.508,0l0.245,0.015  c0.202,0.009,0.403-0.047,0.575-0.156c0.959-0.61,1.921-2.08,2.942-3.737c0.834,0.21,1.669,0.493,2.494,0.845  c-0.124,1.813-0.207,3.488,0.114,4.55c0.068,0.227,0.215,0.422,0.415,0.551c0.347,0.224,0.681,0.463,1.004,0.719  c0.185,0.146,0.404,0.224,0.65,0.214c1.091-0.033,2.597-0.614,4.218-1.279c0.587,0.698,1.115,1.433,1.575,2.195  c-1.044,1.274-1.989,2.471-2.416,3.475c-0.104,0.244-0.106,0.518-0.008,0.764c0.185,0.459,0.344,0.948,0.489,1.495  c0.068,0.257,0.236,0.476,0.466,0.609c0.919,0.532,2.36,0.922,3.918,1.317C42.979,37.094,43,37.56,43,38s-0.021,0.906-0.065,1.411  c-1.559,0.396-3,0.785-3.919,1.318c-0.23,0.133-0.397,0.352-0.465,0.609c-0.145,0.548-0.305,1.037-0.489,1.495  C37.963,43.077,37.965,43.352,38.069,43.596z"></path><path d="M46.744,4.198l1.252,1.56c0.467-0.375,0.976-0.697,1.513-0.958L48.635,3C47.963,3.327,47.327,3.729,46.744,4.198z"></path><path d="M53.01,20v2c0.749,0,1.497-0.084,2.224-0.25l-0.445-1.95C54.207,19.933,53.609,20,53.01,20z"></path><path d="M45.202,13.796l-1.949,0.446c0.167,0.729,0.417,1.44,0.744,2.114l1.8-0.873C45.535,14.946,45.335,14.378,45.202,13.796z"></path><path d="M46.775,19.827l1.246-1.564c-0.468-0.373-0.895-0.798-1.269-1.265l-1.561,1.25C45.659,18.831,46.191,19.362,46.775,19.827z"></path><path d="M59.24,19.815l-1.249-1.562c-0.468,0.375-0.978,0.696-1.514,0.955l0.87,1.801C58.018,20.685,58.654,20.283,59.24,19.815z"></path><path d="M48.671,21.016c0.674,0.325,1.386,0.573,2.116,0.738l0.441-1.951c-0.583-0.131-1.151-0.33-1.69-0.589L48.671,21.016z"></path><path d="M60.196,8.501c0.261,0.537,0.462,1.104,0.598,1.687l1.948-0.453c-0.169-0.729-0.421-1.438-0.748-2.11L60.196,8.501z"></path><path d="M62.013,16.337l-1.802-0.868c-0.259,0.538-0.58,1.048-0.954,1.516l1.563,1.247C61.288,17.647,61.688,17.01,62.013,16.337z"></path><path d="M59.208,4.16l-1.242,1.567c0.469,0.372,0.896,0.796,1.271,1.262l1.559-1.254C60.327,5.154,59.793,4.624,59.208,4.16z"></path><path d="M46.732,7.028l-1.565-1.244C44.7,6.37,44.301,7.009,43.978,7.682l1.804,0.864C46.04,8.008,46.359,7.497,46.732,7.028z"></path><path d="M63,11.971l-0.331-0.003L61,12c0,0.601-0.067,1.2-0.198,1.78l1.95,0.442C62.917,13.498,63,12.75,63,11.971z"></path><path d="M52.975,4l-0.006-2c-0.75,0.002-1.498,0.088-2.223,0.255l0.449,1.949C51.775,4.071,52.373,4.002,52.975,4z"></path><path d="M43,12v0.019L45,12c0-0.596,0.065-1.189,0.195-1.764l-1.951-0.438C43.082,10.516,43,11.257,43,12z"></path><path d="M57.31,2.975c-0.675-0.323-1.388-0.57-2.118-0.733l-0.437,1.952c0.583,0.13,1.152,0.327,1.691,0.585L57.31,2.975z"></path><path d="M26,62c13.233,0,24-10.767,24-24h-2c0,12.131-9.869,22-22,22S4,50.131,4,38s9.869-22,22-22h11.15l-2.774,2.219l1.249,1.562  l5-4l-0.004-0.005c0.143-0.114,0.26-0.263,0.324-0.444c0.14-0.401,0.013-0.847-0.319-1.112l-5-4l-1.249,1.562L37.149,14H26  C12.767,14,2,24.767,2,38S12.767,62,26,62z"></path><rect x="48" y="34" width="2" height="2"></rect></svg>