<svg height='100px' width='100px'  fill="#6e4a88" xmlns="http://www.w3.org/2000/svg" xmlns:xlink="http://www.w3.org/1999/xlink" version="1.1" x="0px" y="0px" viewBox="0 0 100 100" style="enable-background:new 0 0 100 100;" xml:space="preserve"><path d="M65,16.7c-10.6,0-19.2,8.6-19.2,19.2S54.3,55.2,65,55.2s19.2-8.6,19.2-19.2S75.6,16.7,65,16.7z M65,25.6  c2.8,0,5.1,2.3,5.1,5.1c0,2.8-2.3,5.1-5.1,5.1c-2.8,0-5.1-2.3-5.1-5.1C59.8,28,62.1,25.6,65,25.6z M73.2,45.3H56.7  c-0.5,0-0.9-0.4-0.9-0.9c0-3.4,1.9-6.4,4.8-8c1.2,1,2.7,1.5,4.4,1.5c1.6,0,3.2-0.6,4.4-1.5c2.9,1.6,4.8,4.6,4.8,8  C74.1,44.9,73.7,45.3,73.2,45.3z"></path><g><g><path d="M15.5,47.4h-6c-2.1,0-3.8,1.7-3.8,3.8v24.3c0,2.1,1.7,3.8,3.8,3.8h6V47.4z"></path><path d="M22.2,47.4h-2.7v31.8h2.7c2.1,0,3.8-1.7,3.8-3.8V51.1C26,49.1,24.3,47.4,22.2,47.4z"></path></g><g><path d="M94,56.1c-1.1-1.4-7.2-0.6-9.7,0.6c-1.8,0.9-3.4,1.8-5,2.7c-5.3,2.9-10,5.5-16.8,6.6c0.8,2.2,1.6,5.5-1.6,7.9    c-1.5,1.1-3.2,1.5-4.6,1.5c-2.8,0-5-1.3-5.1-1.4c-0.1-0.1-0.2-0.1-0.3-0.2l-8.6-7.9c-0.8-0.8-0.9-2-0.1-2.8c0.8-0.8,2-0.9,2.8-0.1    l8.4,7.8c0.6,0.3,3.1,1.5,5.1,0c1-0.7,0.9-1.7-0.2-4.2c-0.2-0.6-0.5-1-0.6-1.5c-1.1-1.5-7.5-7.8-13.5-13.4H30v22.5h3.5    c0.3,0,0.6,0.1,0.9,0.2l16.8,8c0.2,0.1,0.4,0.3,0.6,0.4c0,0,0,0,0,0c0,0,2.3,1.7,8.4-2.1c7.3-4.6,31-18.8,34.1-20.6    C94.6,59.4,95.3,57.8,94,56.1z"></path></g></g></svg>