<svg height='100px' width='100px'  fill="#E60000" xmlns="http://www.w3.org/2000/svg" xmlns:xlink="http://www.w3.org/1999/xlink" version="1.1" x="0px" y="0px" viewBox="0 0 24 24" style="enable-background:new 0 0 24 24;" xml:space="preserve"><g><path d="M7.497,9.953c-0.177-0.006-0.353-0.025-0.54-0.05c-0.006,0-0.018,0-0.035,0C6.901,9.901,6.881,9.899,6.859,9.9   C6.3,9.886,5.83,9.542,5.695,9.009C5.65,8.83,5.508,8.708,5.303,8.707c-0.185,0.002-0.344,0.13-0.386,0.311   c-0.205,0.895,0.099,1.823,0.792,2.424c0.357,0.31,0.795,0.499,1.265,0.548c0.014,0.001,0.028,0.002,0.042,0.002   c0.202,0,0.376-0.153,0.397-0.358c0.023-0.22-0.137-0.417-0.356-0.439c-0.307-0.032-0.592-0.156-0.825-0.357   C6.11,10.73,6.005,10.608,5.92,10.476C6.196,10.62,6.509,10.7,6.839,10.7c0.017,0,0.032,0,0.048,0   c0.201,0.026,0.39,0.045,0.582,0.052c0.231,0.009,0.406-0.165,0.414-0.386C7.891,10.146,7.718,9.961,7.497,9.953z"></path><path d="M21.961,15.539c0.158-0.621,0.243-1.258,0.24-1.899c-0.001-2.35-1.034-4.564-2.833-6.076   c-0.017-0.014-0.034-0.027-0.054-0.038c-1.056-0.902-2.328-1.511-3.679-1.777c0.097-0.111,0.19-0.228,0.272-0.368   c0.197-0.464,0.212-0.98,0.041-1.458c-0.405-1.105-1.468-1.861-2.603-1.877l-0.517-0.062c-0.471-0.056-0.942-0.112-1.404-0.179   c-1.031-0.143-1.482-0.531-1.556-1.341C9.851,0.286,9.719,0.141,9.544,0.107c-0.175-0.03-0.351,0.054-0.432,0.212   C8.515,1.497,8.591,2.917,9.323,4.043c0.347,0.473,0.806,0.865,1.318,1.127c0.249,0.136,0.239,0.18,0.204,0.345   c-0.03,0.095-0.104,0.169-0.22,0.206c-0.093,0.034-0.196,0.009-0.273-0.077c-0.032-0.033-0.062-0.068-0.081-0.095   c-0.113-0.175-0.214-0.358-0.303-0.546c-0.07-0.149-0.216-0.232-0.392-0.228C9.411,4.789,9.271,4.902,9.224,5.061   c-0.122,0.412-0.13,0.838-0.051,1.245C9.172,6.304,9.171,6.303,9.17,6.302C8.907,5.772,8.514,5.31,8.017,4.952   C6.907,4.235,5.485,4.16,4.305,4.753C4.146,4.834,4.059,5.01,4.092,5.185C4.125,5.36,4.27,5.492,4.447,5.509   c0.813,0.078,1.207,0.53,1.358,1.556c0.012,0.09,0.021,0.183,0.033,0.274c-0.04-0.03-0.071-0.069-0.112-0.097   C4.618,6.525,3.197,6.45,2.021,7.042C1.86,7.123,1.773,7.3,1.808,7.475c0.034,0.176,0.18,0.308,0.358,0.323   c0.804,0.07,1.195,0.521,1.35,1.554c0.06,0.404,0.106,0.812,0.153,1.221l0.081,0.667c0.021,1.176,0.778,2.234,1.938,2.645   c0.213,0.044,0.431,0.055,0.65,0.068c0.073,1.931,0.864,3.795,2.208,5.186v1.805c0,0.554,0.451,1.005,1.004,1.005   s1.004-0.451,1.004-1.005v-0.295c0.843,0.444,1.76,0.732,2.706,0.854V22.9c0,0.554,0.451,1.005,1.005,1.005   s1.005-0.451,1.005-1.005v-1.395c0.713-0.088,1.403-0.272,2.064-0.551c0.17,0.315,0.492,0.537,0.874,0.537   c0.554,0,1.004-0.45,1.004-1.004v-0.652c1.299-1.04,2.249-2.47,2.689-4.071c0.037-0.061,0.065-0.128,0.065-0.205   C21.965,15.552,21.961,15.546,21.961,15.539z M21.399,13.642c0.003,0.521-0.066,1.038-0.182,1.546   c-0.628,0.069-1.183,0.43-1.474,1.004c-0.187,0.366-0.558,0.593-0.97,0.593c-0.001,0-0.001,0-0.002,0H18.57h-0.001   c-0.159,0-0.293-0.124-0.307-0.289c-0.056-0.556-0.41-1.03-0.996-1.287c-0.041-0.046-0.044-0.097-0.042-0.123   c0.001-0.026,0.011-0.077,0.057-0.117c0.78-0.686,1.641-1.451,1.641-1.451c0.226-0.2,0.393-0.458,0.482-0.747   c0.27-0.868-0.218-1.794-1.089-2.064c-0.12-0.037-0.236-0.075-0.35-0.113l-0.249-0.091c-0.082-0.061-0.101-0.176-0.041-0.257   c0.459-0.623,0.953-1.223,1.463-1.8C20.575,9.79,21.398,11.658,21.399,13.642z M18.568,19.341   c-0.008,0.006-0.012,0.015-0.019,0.022c-0.019,0.017-0.034,0.037-0.05,0.057c-0.016,0.021-0.032,0.042-0.044,0.065   c-0.01,0.021-0.016,0.043-0.022,0.065c-0.008,0.028-0.015,0.056-0.017,0.085c-0.001,0.009-0.005,0.016-0.005,0.025v0.827   c0,0.225-0.407,0.312-0.407-0.087c0-0.008-0.004-0.013-0.004-0.02c-0.001-0.011-0.006-0.022-0.007-0.034   c-0.006-0.038-0.012-0.075-0.028-0.106c-0.003-0.006-0.002-0.013-0.005-0.019c-0.1-0.199-0.341-0.277-0.537-0.18   c-0.812,0.405-1.681,0.645-2.585,0.713c-0.041,0.003-0.077,0.017-0.113,0.032c-0.004,0.001-0.007,0.002-0.011,0.003   c-0.093,0.04-0.165,0.112-0.206,0.204c-0.002,0.004-0.004,0.007-0.006,0.01c-0.016,0.039-0.022,0.08-0.025,0.124   c-0.001,0.01-0.006,0.019-0.006,0.029v0.018c0,0.003-0.001,0.005-0.001,0.008c0,0.001,0.001,0.002,0.001,0.004V22.9   c0,0.225-0.408,0.225-0.408,0v-1.743c0-0.024-0.01-0.044-0.013-0.067c-0.004-0.025-0.006-0.049-0.015-0.073   c-0.009-0.025-0.024-0.046-0.038-0.068c-0.013-0.021-0.025-0.043-0.042-0.062c-0.018-0.02-0.04-0.033-0.061-0.049   c-0.02-0.014-0.038-0.03-0.06-0.041c-0.026-0.013-0.055-0.018-0.084-0.024c-0.019-0.004-0.035-0.014-0.054-0.016   c-1.18-0.096-2.328-0.486-3.321-1.129c-0.01-0.006-0.021-0.007-0.03-0.012c-0.025-0.014-0.051-0.023-0.08-0.031   c-0.023-0.007-0.046-0.012-0.07-0.014c-0.013-0.001-0.024-0.008-0.037-0.008c-0.016,0-0.029,0.007-0.045,0.009   c-0.025,0.003-0.048,0.007-0.072,0.015c-0.026,0.008-0.05,0.018-0.073,0.031c-0.021,0.012-0.041,0.025-0.06,0.04   c-0.022,0.018-0.04,0.037-0.058,0.06c-0.009,0.011-0.021,0.017-0.028,0.029c-0.006,0.01-0.007,0.021-0.012,0.031   c-0.013,0.023-0.021,0.048-0.029,0.073c-0.008,0.027-0.014,0.053-0.016,0.08c-0.001,0.011-0.006,0.021-0.006,0.032v0.978   c0,0.225-0.409,0.225-0.409,0v-1.962c0-0.113-0.048-0.214-0.123-0.287c-1.33-1.318-2.092-3.145-2.097-5.017l1.363,0.869   c0.195,0.13,0.41,0.217,0.635,0.26c0.376,0.074,0.672,0.352,0.771,0.726c0.186,0.674,0.492,1.301,0.912,1.864l0.155,0.206   c0.318,0.435,0.584,0.903,0.801,1.409c0.056,0.129,0.149,0.234,0.272,0.307c0.103,0.059,0.214,0.087,0.324,0.087   c0.225,0,0.442-0.115,0.56-0.319c0.068-0.113,0.157-0.21,0.275-0.296c0.18-0.14,0.3-0.34,0.34-0.572l0.025-0.16   c0.08-0.466,0.334-0.876,0.717-1.158l0.159-0.118c0.083-0.062,0.158-0.137,0.224-0.223c0.182-0.239,0.26-0.534,0.219-0.832   s-0.195-0.562-0.435-0.744l-2.151-1.633c-0.521-0.284-1.152-0.296-1.718-0.016c-0.236,0.114-0.531,0.028-0.665-0.196l-0.349-0.602   c-0.06-0.102-0.081-0.221-0.059-0.336c0.024-0.127,0.096-0.237,0.203-0.31c0.107-0.072,0.236-0.1,0.362-0.076l0.241,0.046   c0.43,0.082,0.88-0.068,1.181-0.404c0.194-0.229,0.476-0.359,0.816-0.359c0.001,0,0.003,0,0.005,0   c0.572,0.048,1.121-0.327,1.29-0.899c0.202-0.708-0.01-1.456-0.56-1.958c-0.391-0.341-0.769-0.644-1.125-0.909   c-0.177-0.133-0.428-0.096-0.56,0.081c-0.132,0.177-0.096,0.428,0.081,0.56c0.341,0.255,0.703,0.544,1.07,0.865   c0.317,0.29,0.441,0.728,0.324,1.138c-0.058,0.195-0.232,0.324-0.51,0.324c-0.02,0-0.044,0-0.061-0.001   c-0.534,0-1.038,0.233-1.375,0.632c-0.107,0.119-0.271,0.174-0.429,0.144l-0.242-0.046c-0.338-0.064-0.679,0.008-0.962,0.201   c-0.283,0.194-0.474,0.486-0.538,0.824c-0.058,0.306-0.002,0.622,0.155,0.888l0.35,0.604c0.347,0.582,1.096,0.807,1.739,0.489   c0.302-0.148,0.658-0.14,0.9-0.014l2.101,1.6c0.07,0.053,0.114,0.13,0.126,0.216s-0.01,0.171-0.129,0.306l-0.156,0.116   c-0.548,0.403-0.913,0.994-1.029,1.668l-0.057,0.226c-0.121,0.088-0.229,0.189-0.325,0.305c-0.215-0.465-0.478-0.91-0.784-1.329   l-0.157-0.209c-0.359-0.481-0.622-1.02-0.781-1.595c-0.178-0.668-0.71-1.167-1.392-1.301c-0.124-0.023-0.24-0.071-0.352-0.145   l-1.949-1.242c-0.186-0.12-0.434-0.064-0.552,0.122c-0.083,0.13-0.077,0.287-0.005,0.412c-0.185-0.008-0.363-0.023-0.512-0.052   c-0.796-0.284-1.341-1.044-1.359-1.933l-0.083-0.701c-0.047-0.418-0.095-0.836-0.157-1.249C4.253,8.874,4.122,8.001,3.446,7.456   c0.64-0.054,1.289,0.098,1.835,0.45c0.303,0.21,0.562,0.49,0.75,0.807c0.003,0.005,0.007,0.008,0.01,0.013l0,0l0,0   c0.027,0.046,0.062,0.085,0.104,0.117c0.003,0.003,0.007,0.004,0.01,0.006c0.038,0.027,0.079,0.047,0.125,0.06   c0.006,0.002,0.011,0.002,0.017,0.003c0.029,0.007,0.057,0.016,0.088,0.016c0.014,0,0.028,0,0.043-0.002   c0.116-0.012,0.213-0.075,0.277-0.163c0.002-0.003,0.003-0.007,0.005-0.01c0.026-0.038,0.047-0.078,0.059-0.123   c0.007-0.026,0.005-0.052,0.007-0.079C6.779,8.53,6.787,8.509,6.784,8.486c0-0.003-0.001-0.007-0.001-0.01   c0-0.002,0-0.005-0.001-0.007C6.728,7.963,6.665,7.455,6.597,6.953C6.476,6.129,6.189,5.536,5.729,5.166   c0.642-0.053,1.292,0.096,1.837,0.447c0.375,0.27,0.682,0.631,0.867,0.996C8.596,7.087,9.094,7.363,9.576,7.28   c0.067,0.113,0.122,0.233,0.203,0.337c0.079,0.102,0.197,0.154,0.316,0.154c0.086,0,0.172-0.027,0.245-0.084   c0.174-0.136,0.206-0.387,0.07-0.561c-0.111-0.143-0.205-0.301-0.289-0.484c-0.005-0.01-0.004-0.021-0.01-0.03   c-0.003-0.005-0.008-0.007-0.01-0.012c-0.033-0.068-0.064-0.137-0.088-0.207c0.265,0.157,0.592,0.194,0.874,0.086   c0.345-0.108,0.615-0.379,0.708-0.686c0.01-0.022,0.031-0.111,0.037-0.135c0.172-0.763-0.414-1.083-0.616-1.194   c-0.412-0.211-0.773-0.52-1.034-0.875c-0.36-0.554-0.515-1.208-0.458-1.848c0.548,0.683,1.428,0.805,1.788,0.855   c0.466,0.068,0.944,0.125,1.422,0.182l0.556,0.065c0.849,0.014,1.615,0.559,1.905,1.354c0.103,0.285,0.094,0.594,0.001,0.823   c-0.109,0.182-0.261,0.34-0.411,0.441C14.62,5.552,14.434,5.6,14.246,5.6c-0.001,0-0.002,0-0.002,0   c-0.018,0-0.048,0.006-0.077,0.013c-0.021,0.005-0.041,0.005-0.062,0.014l-0.049-0.325c-0.04-0.48-0.237-0.944-0.552-1.301   c-0.597-0.699-1.521-1.002-2.418-0.791c-0.179,0.042-0.306,0.201-0.308,0.385c-0.002,0.184,0.122,0.346,0.3,0.391   c0.547,0.141,0.917,0.635,0.901,1.248l0.014,0.155c0.022,0.255,0.045,0.521,0.072,0.768c0.006,0.079,0.018,0.158,0.033,0.235   c0.046,0.215,0.256,0.357,0.474,0.31c0.216-0.045,0.354-0.257,0.31-0.474c-0.01-0.044-0.016-0.088-0.021-0.145   c-0.027-0.253-0.05-0.513-0.071-0.763l-0.013-0.108c0.012-0.358-0.07-0.699-0.227-0.997c0.128,0.084,0.245,0.188,0.349,0.309   c0.206,0.233,0.333,0.533,0.363,0.879l0.062,0.395c0.122,0.44,0.57,0.697,0.912,0.601c1.557,0.032,3.054,0.589,4.28,1.54   c-0.518,0.587-1.021,1.196-1.487,1.83c-0.319,0.438-0.225,1.054,0.213,1.375c0.074,0.055,0.156,0.098,0.257,0.135l0.213,0.07   c0.12,0.04,0.243,0.081,0.368,0.119c0.447,0.139,0.698,0.616,0.56,1.062c-0.046,0.148-0.133,0.281-0.25,0.386   c0,0-0.858,0.765-1.638,1.449c-0.194,0.171-0.311,0.408-0.327,0.668c-0.016,0.259,0.069,0.508,0.239,0.7   c0.101,0.116,0.23,0.207,0.371,0.263c0.239,0.097,0.404,0.317,0.43,0.569c0.047,0.57,0.531,1.018,1.103,1.018   c0.001,0,0.002,0,0.003,0h0.199c0.001,0,0.003,0,0.004,0c0.713,0,1.357-0.395,1.682-1.031c0.108-0.213,0.284-0.372,0.488-0.474   C20.477,17.366,19.664,18.513,18.568,19.341z"></path><path d="M18.811,21.49c-0.221,0-0.4,0.18-0.4,0.4v0.81c0,0.225-0.407,0.225-0.407,0v-0.176c0-0.221-0.18-0.4-0.4-0.4   s-0.4,0.18-0.4,0.4V22.7c0,0.554,0.451,1.004,1.005,1.004s1.004-0.45,1.004-1.004v-0.81C19.211,21.67,19.031,21.49,18.811,21.49z"></path></g></svg>