<svg height='100px' width='100px'  fill="#0059B3" xmlns="http://www.w3.org/2000/svg" xmlns:xlink="http://www.w3.org/1999/xlink" version="1.1" x="0px" y="0px" viewBox="0 0 128 128" enable-background="new 0 0 128 128" xml:space="preserve"><path d="M127.924,18.712c-0.087-0.702-0.537-1.306-1.185-1.589c-0.647-0.282-1.396-0.204-1.971,0.21  c-0.042,0.03-4.314,3.05-11.695,3.05c-5.688,0-11.624-1.792-17.643-5.326c-0.071-0.042-0.145-0.079-0.22-0.111  c-0.275-0.119-6.799-2.907-12.619-2.907c-7.47,0-9.257,4.543-9.658,7.25c-0.023,0.159-0.027,0.321-0.013,0.48  c0.287,3.077-0.183,6.386-0.968,7.228c-0.019,0-0.037,0-0.057,0c-1.438,0-2.747,0.571-3.729,1.599h-1.854v-0.345  c-0.007-0.052-0.013-0.103-0.02-0.155V15.742c3.463-0.889,6.033-4.017,6.033-7.74C72.327,3.589,68.724,0,64.294,0  s-8.033,3.589-8.033,8.001c0,3.723,2.57,6.852,6.033,7.74v12.352c-0.007,0.053-0.013,0.105-0.02,0.158l0,0.373  c-0.092-0.013-0.183-0.028-0.278-0.028h-2.149c-0.994-1.041-2.325-1.614-3.785-1.599c-0.785-0.842-1.256-4.152-0.97-7.229  c0.015-0.159,0.011-0.321-0.013-0.479c-0.4-2.708-2.188-7.251-9.657-7.251c-5.821,0-12.344,2.788-12.619,2.907  c-0.075,0.032-0.149,0.07-0.22,0.111c-6.018,3.534-11.954,5.325-17.643,5.326c-0.001,0-0.001,0-0.002,0  c-7.293,0-11.658-3.025-11.694-3.05c-0.574-0.414-1.323-0.494-1.971-0.211c-0.648,0.283-1.098,0.888-1.184,1.589  C-1.125,28.615,10.14,36.022,13.56,38.028c2.988-0.675,10.988-3.1,16.592-10.521c5.864-7.762,13.251-11.636,21.997-11.603l-0.015,2  c-8.23-0.071-14.848,3.476-20.386,10.808c-5.485,7.265-12.921,10.036-16.704,11.025c3.586,4.58,8.217,5.622,11.655,5.622  c0.853,0,1.636-0.066,2.322-0.159c1.479-1.124,6.623-5.373,9.037-11.815c1.783-4.758,4.183-8.686,15.426-8.609l-0.015,2  c-10.793-0.093-12.178,3.679-13.539,7.311c-2.062,5.501-5.858,9.44-8.196,11.482c1.522,0.863,3.099,1.307,4.708,1.307  c4.163,0,7.577-2.857,10.32-5.153c1.187-0.993,2.308-1.931,3.152-2.339c1.121-0.542,2.188-0.817,3.172-0.817  c4.652,0,7.003,6.306,7.025,6.365c0.13,0.364,0.359,0.667,0.646,0.893c-8.287,1.459-14.553,7.938-14.553,15.692  c0,6.221,4.041,11.61,9.915,14.258c-3.561,2.18-5.892,5.732-5.892,9.748c0,5.208,3.915,9.64,9.36,11.297  c-4.316,1.524-7.35,5.078-7.35,9.208c0,5.028,4.5,9.19,10.333,9.888c0.516,4.029,1.042,8.058,1.723,12.087  c0.681-4.029,1.207-8.058,1.723-12.087c5.832-0.697,10.332-4.859,10.332-9.888c0-4.13-3.033-7.684-7.35-9.208  c5.445-1.657,9.36-6.089,9.36-11.297c0-4.016-2.332-7.568-5.892-9.748c5.873-2.647,9.914-8.037,9.914-14.258  c0-7.905-6.518-14.473-15.045-15.759c0.247-0.218,0.445-0.496,0.563-0.825c0.022-0.064,2.412-6.366,7.027-6.366  c0.983,0,2.05,0.274,3.172,0.817c0.845,0.408,1.966,1.347,3.153,2.34c2.743,2.295,6.157,5.152,10.318,5.152  c1.695,0,3.35-0.508,4.947-1.464c-1.935-2.313-4.795-6.052-7.946-11.231c-0.244-0.401-0.475-0.81-0.707-1.22  c-1.838-3.253-3.548-6.351-12.913-6.259l-0.014-2c10.478-0.05,12.722,3.83,14.668,7.276c0.222,0.392,0.442,0.782,0.675,1.165  c4.319,7.101,8.137,11.482,9.565,13.027c0.54,0.106,1.116,0.175,1.729,0.175c2.448,0,6.557-0.376,9.674-5.343  c0.432-0.246,0.797-1.261,1.4-1.874c-4.685-0.695-11.007-3.111-16.006-10.454c-2.746-4.032-9.006-10.769-20.154-10.769  c-0.067,0-0.135,0-0.203,0.001l-0.014-2c0.072,0,0.146-0.001,0.219-0.001c12.068,0,18.836,7.283,21.805,11.643  c5.566,8.174,12.706,9.745,16.924,9.868C120.797,33.497,128.869,26.411,127.924,18.712z M64.294,12.003  c-2.224,0-4.033-1.795-4.033-4.001S62.07,4,64.294,4c2.224,0,4.033,1.795,4.033,4.001S66.518,12.003,64.294,12.003z"></path></svg>