<svg height='100px' width='100px'  fill="#666666" xmlns="http://www.w3.org/2000/svg" xmlns:xlink="http://www.w3.org/1999/xlink" xml:space="preserve" version="1.1" style="shape-rendering:geometricPrecision;text-rendering:geometricPrecision;image-rendering:optimizeQuality;" viewBox="0 0 846.66 846.66" x="0px" y="0px" fill-rule="evenodd" clip-rule="evenodd"><defs><style type="text/css">
   
    .fil0 {fill:#666666}
   
  </style></defs><g><path class="fil0" d="M387.15 383.4l72.37 0c13.13,0 23.87,10.74 23.87,23.87l0 98.49 -20.15 0 0 49.06c0,16.92 -13.84,30.76 -30.77,30.76l-18.27 0c-16.93,0 -30.77,-13.84 -30.77,-30.76l0 -49.06 -20.16 0 0 -98.49c0,-13.13 10.74,-23.87 23.88,-23.87zm123.01 -122.32c20.12,0 36.43,16.31 36.43,36.44 0,20.12 -16.31,36.43 -36.43,36.43 -20.13,0 -36.44,-16.31 -36.44,-36.43 0,-20.13 16.31,-36.44 36.44,-36.44zm-171.39 0c20.12,0 36.43,16.31 36.43,36.44 0,20.12 -16.31,36.43 -36.43,36.43 -20.13,0 -36.44,-16.31 -36.44,-36.43 0,-20.13 16.31,-36.44 36.44,-36.44zm191.94 154.97l60.68 0c11.01,0 20.02,9.01 20.02,20.02l0 82.58 -16.9 0 0 41.13c0,14.2 -11.61,25.8 -25.8,25.8l-15.32 0c-14.19,0 -25.8,-11.6 -25.8,-25.8l0 -41.13 -16.9 0 0 -82.58c0,-11.01 9,-20.02 20.02,-20.02zm30.34 -88.53c18.83,0 34.09,15.26 34.09,34.09 0,18.83 -15.26,34.09 -34.09,34.09 -18.83,0 -34.09,-15.26 -34.09,-34.09 0,-18.83 15.26,-34.09 34.09,-34.09zm-305.78 88.53l60.69 0c11.01,0 20.02,9.01 20.02,20.02l0 82.58 -16.9 0 0 41.13c0,14.2 -11.61,25.8 -25.8,25.8l-15.32 0c-14.19,0 -25.8,-11.6 -25.8,-25.8l0 -41.13 -16.9 0 0 -82.58c0,-11.01 9,-20.02 20.01,-20.02zm30.35 -88.53c18.83,0 34.09,15.26 34.09,34.09 0,18.83 -15.26,34.09 -34.09,34.09 -18.83,0 -34.1,-15.26 -34.1,-34.09 0,-18.83 15.27,-34.09 34.1,-34.09zm137.71 -49.71c22.46,0 40.66,18.21 40.66,40.66 0,22.46 -18.2,40.66 -40.66,40.66 -22.45,0 -40.66,-18.2 -40.66,-40.66 0,-22.45 18.21,-40.66 40.66,-40.66z"></path></g></svg>