<svg height='100px' width='100px'  fill="#7400B3" xmlns="http://www.w3.org/2000/svg" xmlns:xlink="http://www.w3.org/1999/xlink" version="1.1" x="0px" y="0px" viewBox="0 0 50 50" enable-background="new 0 0 50 50" xml:space="preserve"><g><path fill-rule="evenodd" clip-rule="evenodd" d="M10.41,13.732v2.84H6.591v-2.84H10.41z M17.141,16.572H13.25v-2.84h3.891V16.572z    M19.981,16.572v-2.84h3.818v2.84H19.981z M29.134,16.328l3.206,5.757l4.576-0.807l-1.576,4.848l3.422-0.602l4.647-5.388   l4.233-0.739c3.537-0.618,2.908-4.327-0.653-3.705l-4.097,0.717l-3.924-1.728l-3.143,0.554l0.907,2.259l-2.4,0.42l-2.189-2.117   L29.134,16.328z M7.175,36.061h6.782v2.841H7.175V36.061z M36.044,41.682h6.78v2.841h-6.78V41.682z M36.044,36.061h6.78v2.841   h-6.78V36.061z M26.42,41.682h6.783v2.841H26.42V41.682z M16.799,41.682h6.781v2.841h-6.781V41.682z M26.42,36.061h6.783v2.841   H26.42V36.061z M7.175,41.682h6.782v2.841H7.175V41.682z M16.799,36.061h6.781v2.841h-6.781V36.061z M40.596,28.324H28.128v2.6   H2.025v15.894H0v2.841h50v-2.841h-2.025V30.925h-7.379V28.324z M5.926,19.413l2.407,5.812v4.362h13.134v-4.362l2.998-5.812h2.176   v-8.522h-2.283V8.05h-7.741V0.34h-2.841v7.71H5.728v2.841H3.751v8.522H5.926z"></path></g></svg>