<svg height='100px' width='100px'  fill="#b35c00" xmlns="http://www.w3.org/2000/svg" xmlns:xlink="http://www.w3.org/1999/xlink" version="1.1" x="0px" y="0px" viewBox="0 0 50 50" enable-background="new 0 0 50 50" xml:space="preserve"><g><path fill-rule="evenodd" clip-rule="evenodd" d="M27.524,37.167v8.156h-5.048v-8.156H27.524z M4.891,30.27h40.218v15.054H30.365   V34.326h-10.73v10.997H4.891V30.27z M16.355,17.782v9.647H4.891v-9.647H16.355z M30.66,17.782v9.647H19.196v-9.647H30.66z    M33.501,17.782h11.608v9.647H33.501V17.782z M50,14.94H0v2.841h2.051v27.542H0v2.841h50v-2.841h-2.051V17.782H50V14.94z    M35.325,1.836h-2.841v4.343H17.516V1.836h-2.841v1.22h-2.841v3.123h-1.739V9.02h1.739v3.123h2.841v1.22h2.841V9.02h14.967v4.344   h2.841v-1.22h2.841V9.02h1.739V6.179h-1.739V3.056h-2.841V1.836z"></path></g></svg>