<svg height='100px' width='100px'  fill="#2a6408" xmlns="http://www.w3.org/2000/svg" version="1.1" viewBox="0 0 64 64" x="0px" y="0px"><path d="m28.99985 7c-13.789368 0-25 11.210632-25 25s11.210632 25 25 25c3.7248535 0 7.3460693-0.8297119 10.625-2.3691406 0.7502441-0.3521729 1.072876-1.2458496 0.7207031-1.9960938s-1.2458496-1.072876-1.9960938-0.7207031c-2.8857421 1.3548584-6.0704345 2.0859375-9.3496093 2.0859375-12.16803 0-22-9.8319702-22-22s9.8319702-22 22-22c10.533874 0 19.572815 7.4446411 21.591797 17.783203 0.1585693 0.8133545 0.9464111 1.3441162 1.7597656 1.1855469s1.3441162-0.9464111 1.1855469-1.7597656c-2.2904663-11.728821-12.586731-20.208984-24.53711-20.208984z" style="" fill="#2a6408"></path><path d="m28.978366 19.000122c-0.8284302 0.011902-1.4903564 0.6930542-1.4785156 1.5214844v0.5527344c-2.5307007 0.4099731-4.5 2.5933838-4.5 5.2246094v1.9003906c0 2.9223633 2.4274902 5.3007813 5.3574219 5.3007813h1.2851563c1.3436279 0 2.3574219 1.0108032 2.3574219 2.2988281v1.9003906c0 1.2880859-1.0137939 2.3007813-2.3574219 2.3007813h-1.2851563c-1.3436279 0-2.3574219-1.0126953-2.3574219-2.3007813 0.011719-0.8284302-0.6503906-1.5094604-1.4788208-1.5211792-0.8284302-0.011719-1.5094604 0.6503296-1.5211792 1.4787598-1.831e-4 0.01416-1.831e-4 0.02832 0 0.042419 0 2.6312256 1.9692993 4.8162842 4.5 5.2265625v0.5527344c-0.011719 0.8284302 0.6503906 1.5095215 1.4787598 1.5212402 0.8284302 0.011719 1.5095215-0.6503906 1.5212402-1.4788208 1.831e-4 -0.014099 1.831e-4 -0.028259 0-0.042419v-0.5527344c2.5307007-0.4102783 4.5-2.5953369 4.5-5.2265625v-1.9003906c0-2.9223022-2.4274902-5.2988281-5.3574219-5.2988281h-1.2851563c-1.3436279 0-2.3574219-1.0126953-2.3574219-2.3007813v-1.9003906c0-1.2880249 1.0137939-2.2988281 2.3574219-2.2988281h1.2851563c1.3436279 0 2.3574219 1.0108032 2.3574219 2.2988281-0.011719 0.8284302 0.6503906 1.5095215 1.4788208 1.5212402 0.8284302 0.011719 1.5094604-0.6503906 1.5211792-1.4788208 1.831e-4 -0.014099 1.831e-4 -0.028259 0-0.042419 0-2.6312256-1.9692993-4.8146362-4.5-5.2246094v-0.5527344c0.011841-0.8284302-0.6500854-1.5095825-1.4785156-1.5214844-0.014343-1.831e-4 -0.028625-1.831e-4 -0.0429688-4e-7z" style="" fill="#2a6408"></path><path d="m45.318209 31c-1.4372559 0-2.3183594 1.2873535-2.3183594 2.5v9.5h-2.4960938c-2.1135254 0-3.3021851 2.7223511-1.890625 4.2851563l7.7167969 8.5429688c1.4107666 1.5619507 3.9290771 1.5619507 5.3398438 0l7.7167969-8.5429688c1.4115601-1.5628662 0.2229004-4.2852173-1.890625-4.2851563h-2.4960938v-9.5c-6.1e-5 -1.2125854-0.8811035-2.5-2.3183594-2.5zm0.6816406 3h6v10.5c6.1e-5 0.8283691 0.6716309 1.499939 1.5 1.5h3.0039063l-7.0605469 7.8183594c-0.2596436 0.2874146-0.6270752 0.2874146-0.8867188 0l-7.0605469-7.8183594h3.0039063c0.8283691-6.1e-5 1.499939-0.6716309 1.5-1.5z" style="" fill="#2a6408"></path></svg>