<svg height='100px' width='100px'  fill="#39963b" xmlns="http://www.w3.org/2000/svg" xmlns:xlink="http://www.w3.org/1999/xlink" version="1.1" x="0px" y="0px" viewBox="0 0 100 100" style="enable-background:new 0 0 100 100;" xml:space="preserve"><path d="M50.0019531,74.1796875c0.5527344,0,1-0.4472656,1-1v-4.4967041  c8.1937256-0.5375977,14.7050781-7.5818481,14.7050781-16.1878662c0-11.5996094-14.3935547-25.7919922-15.0058594-26.390625  c-0.3847656-0.375-0.9960938-0.3798828-1.3857422-0.0107422c-0.6132812,0.5791016-15.0175781,14.3310547-15.0175781,26.4013672  c0,8.6060181,6.5113525,15.6502075,14.7041016,16.1878662v4.4967041  C49.0019531,73.7324219,49.4492188,74.1796875,50.0019531,74.1796875z M40.5217285,40.1912231l8.4802246,8.0548706v11.0501099  L36.9996338,47.8953247C37.7485962,45.2793579,39.0320435,42.651062,40.5217285,40.1912231z M62.9741821,47.9248047  l-11.972229,11.37146V48.2461548l8.40271-7.9804688C60.9066772,42.7337036,62.2077637,45.3526001,62.9741821,47.9248047z   M51.0019531,45.4887695V29.3102417c1.7959595,1.9475098,4.7193604,5.3231201,7.3103027,9.2359619L51.0019531,45.4887695z   M51.0019531,66.6826782v-4.6289673l12.4970703-11.8703003c0.1309814,0.7825317,0.2080078,1.5558472,0.2080078,2.3117065  C63.7070312,59.9968872,58.0919189,66.1468506,51.0019531,66.6826782z M49.0019531,29.2601929v16.2284546l-7.3892822-7.0183105  C44.2249756,34.5267944,47.1915894,31.1740112,49.0019531,29.2601929z M36.2978516,52.4951172  c0-0.7644043,0.0731201-1.5407104,0.1966553-2.3223877l12.5074463,11.8809814v4.6289673  C41.9121094,66.1468506,36.2978516,59.9968872,36.2978516,52.4951172z"></path><path d="M90.0019531,50.0625c0-22.0556641-17.9443359-40-40-40s-40,17.9443359-40,40s17.9443359,40,40,40  c0.5527344,0,1-0.4472656,1-1s-0.4472656-1-1-1c-20.953125,0-38-17.046875-38-38s17.046875-38,38-38s38,17.046875,38,38  c0,11.329895-4.9175415,21.8231201-13.5390625,29.0698242v-5.0708008c0-0.5527344-0.4472656-1-1-1s-1,0.4472656-1,1V81.28125  c0,0.5527344,0.4472656,1,1,1h7.4228516c0.5527344,0,1-0.4472656,1-1s-0.4472656-1-1-1h-4.6762695  C85.0042114,72.6699219,90.0019531,61.7893066,90.0019531,50.0625z"></path></svg>