<svg height='100px' width='100px'  fill="#B36AE2" xmlns="http://www.w3.org/2000/svg" xmlns:xlink="http://www.w3.org/1999/xlink" version="1.0" x="0px" y="0px" viewBox="0 0 100 100" enable-background="new 0 0 100 100" xml:space="preserve"><path d="M81.404007,66.4034271c-2.1452026,10.2927551-17.0242615,10.2927551-19.1694679,0H36.6822891  c-2.1452065,10.2927551-17.0242653,10.2927551-19.1589031,0H9.5766144c-1.0461836,0-1.8915844-0.8031311-1.9761248-1.8176193  C6.5965757,58.4143829,7.378572,53.511055,9.7668304,49.7595901c2.4410954-3.8148727,6.4673176-6.3193741,11.9201565-7.6508827  l3.0328751-0.0105667c3.9311161-4.8610573,13.4630146-16.2105656,18.3980427-16.2211342l31.6074371,0.0528374  c3.4238739,1.2046967,6.0868835,3.6246586,8.1475525,6.9956932c1.902153,3.1279869,3.286499,7.0696678,4.2798462,11.6137009  c0.7819901,1.5322876,1.4688797,3.3287659,1.7542038,5.484539c0.2430496,1.7330704,0.2219162,3.677494-0.2113495,5.8649712  c5.8755341,2.2720146,5.6641846,10.778862-1.7964783,10.5041046L81.404007,66.4034271z M27.0975533,58.6151657  c-7.6614475,0-7.6614475,11.5925598,0,11.5925598S34.7590027,58.6151657,27.0975533,58.6151657z M71.8192749,58.6151657  c-7.6614456,0-7.6614456,11.5925598,0,11.5925598S79.4807205,58.6151657,71.8192749,58.6151657z"></path></svg>