<svg height='100px' width='100px'  fill="#B35C00" xmlns="http://www.w3.org/2000/svg" xmlns:xlink="http://www.w3.org/1999/xlink" version="1.1" x="0px" y="0px" viewBox="0 0 100 100" style="enable-background:new 0 0 100 100;" xml:space="preserve"><path d="M85,36H15v-2h70V36z M85,37H15c-0.552,0-1,0.448-1,1v2c0,0.552,0.448,1,1,1h70c0.552,0,1-0.448,1-1v-2  C86,37.448,85.552,37,85,37z M85.053,82H14.947C14.424,82,14,82.448,14,83v4c0,0.552,0.424,1,0.947,1h70.105  C85.576,88,86,87.552,86,87v-4C86,82.448,85.576,82,85.053,82z M83,45v-3H73v3c0,0.552,0.448,1,1,1h8C82.552,46,83,45.552,83,45z   M73,81h10v-3c0-0.552-0.448-1-1-1h-8c-0.552,0-1,0.448-1,1V81z M74,76h8V47h-8V76z M60,76h8V47h-8V76z M69,45v-3H59v3  c0,0.552,0.448,1,1,1h8C68.552,46,69,45.552,69,45z M59,81h10v-3c0-0.552-0.448-1-1-1h-8c-0.552,0-1,0.448-1,1V81z M55,45v-3H45v3  c0,0.552,0.448,1,1,1h8C54.552,46,55,45.552,55,45z M46,76h8V47h-8V76z M45,81h10v-3c0-0.552-0.448-1-1-1h-8c-0.552,0-1,0.448-1,1  V81z M41,45v-3H31v3c0,0.552,0.448,1,1,1h8C40.552,46,41,45.552,41,45z M32,76h8V47h-8V76z M31,81h10v-3c0-0.552-0.448-1-1-1h-8  c-0.552,0-1,0.448-1,1V81z M27,45v-3H17v3c0,0.552,0.448,1,1,1h8C26.552,46,27,45.552,27,45z M18,76h8V47h-8V76z M17,81h10v-3  c0-0.552-0.448-1-1-1h-8c-0.552,0-1,0.448-1,1V81z M87.254,32.06l-36.78-19.805c-0.296-0.159-0.652-0.159-0.948,0L12.746,32.06  C12.289,32.306,12.464,33,12.983,33h74.034C87.536,33,87.711,32.306,87.254,32.06z"></path></svg>