<svg height='100px' width='100px'  fill="#B30083" xmlns="http://www.w3.org/2000/svg" xmlns:xlink="http://www.w3.org/1999/xlink" version="1.1" x="0px" y="0px" viewBox="0 0 64 64" enable-background="new 0 0 64 64" xml:space="preserve"><g><path d="M30.84,8.151c-1.531-0.233-2.733,0.118-3.793,0.427c-0.619,0.181-1.21,0.353-1.835,0.411   c-0.006-0.345-0.019-0.773-0.047-1.253c0.119-0.005,0.241-0.015,0.364-0.031c2.582-0.331,4.944-2.692,5.275-5.274   c0.051-0.398,0.045-0.775-0.001-1.131c-0.357-0.046-0.734-0.052-1.131-0.001C27.628,1.56,25.724,3.093,24.854,5   c-0.264-1.462-0.717-2.877-1.494-3.629c-0.17-0.165-0.444-0.162-0.609,0.01c-0.166,0.171-0.161,0.444,0.01,0.609   c1.112,1.077,1.545,4.341,1.589,6.997c-0.622-0.058-1.21-0.23-1.827-0.41c-1.06-0.309-2.263-0.659-3.793-0.427   c-2.558,0.39-5.608,1.876-5.608,6.741c0,4.597,1.525,10.883,5.825,13.473c1.132,0.682,2.431,0.482,3.807,0.271   c0.667-0.103,1.356-0.209,2.032-0.209c0.675,0,1.365,0.106,2.032,0.209c0.66,0.101,1.303,0.2,1.918,0.2   c0.666,0,1.301-0.116,1.889-0.471c4.299-2.59,5.825-8.876,5.825-13.473C36.447,10.027,33.398,8.541,30.84,8.151z M33.254,16.289   c-0.866,0.519-2.256-0.209-3.105-1.627c-0.848-1.417-0.834-2.986,0.032-3.505c0.866-0.519,2.256,0.21,3.105,1.627   C34.135,14.202,34.12,15.771,33.254,16.289z"></path><path d="M11.272,42.005c0,0.481,0.39,0.87,0.87,0.87h40.021v-1.74H12.142C11.662,41.135,11.272,41.525,11.272,42.005z"></path><g><path d="M52.163,37.655H12.142c-0.481,0-0.87,0.39-0.87,0.87c0,0.481,0.39,0.87,0.87,0.87h40.021V37.655z"></path><path d="M52.728,52.391c0-0.481-0.39-0.87-0.87-0.87H11.837v1.74h40.021C52.338,53.261,52.728,52.872,52.728,52.391z"></path><path d="M11.837,56.741h40.021c0.481,0,0.87-0.39,0.87-0.87c0-0.48-0.39-0.87-0.87-0.87H11.837V56.741z"></path></g><path d="M52.704,45.349H10.943c-0.02,0-0.039,0.002-0.058,0.003c-0.761-0.186-1.329-0.871-1.329-1.688v-6.961   c0-0.959,0.781-1.74,1.74-1.74h41.761c0.961,0,1.74-0.78,1.74-1.74c0-0.961-0.779-1.74-1.74-1.74H11.296   c-2.879,0-5.22,2.342-5.22,5.22v6.961c0,2.878,2.341,5.22,5.22,5.22h41.761c0.02,0,0.039-0.002,0.058-0.003   c0.761,0.185,1.329,0.871,1.329,1.688v6.961c0,0.959-0.781,1.74-1.74,1.74H10.943c-0.961,0-1.74,0.78-1.74,1.74   c0,0.961,0.779,1.74,1.74,1.74h41.761c2.879,0,5.22-2.342,5.22-5.22v-6.961C57.924,47.691,55.583,45.349,52.704,45.349z"></path></g></svg>