<svg height='100px' width='100px'  fill="#0296CC" xmlns="http://www.w3.org/2000/svg" xmlns:xlink="http://www.w3.org/1999/xlink" version="1.1" x="0px" y="0px" viewBox="0 0 48 48" style="enable-background:new 0 0 48 48;" xml:space="preserve"><g><path d="M24,43.37c8,0,14.5-6.5,14.5-14.5c0-7.28-12.2-21.6-14.5-24.24C21.7,7.27,9.5,21.59,9.5,28.87C9.5,36.87,16,43.37,24,43.37   z M24,36.37c4.69,0,8.5-3.81,8.5-8.5c0-0.28,0.22-0.5,0.5-0.5s0.5,0.22,0.5,0.5c0,5.24-4.26,9.5-9.5,9.5c-0.28,0-0.5-0.22-0.5-0.5   S23.72,36.37,24,36.37z"></path></g></svg>