<svg height='100px' width='100px'  fill="#892816" xmlns="http://www.w3.org/2000/svg" xmlns:xlink="http://www.w3.org/1999/xlink" version="1.1" x="0px" y="0px" viewBox="0 0 32 32" style="enable-background:new 0 0 32 32;" xml:space="preserve"><g><path d="M10.0004883,18c0.2089844,0,0.4199219-0.0654297,0.5996094-0.2001953   c0.4414062-0.3320312,0.5307617-0.9589844,0.1987305-1.4003906C9.6220703,14.8330078,9,12.9658203,9,11   c0-4.9628906,4.0375977-9,9-9c4.9628906,0,9,4.0371094,9,9c0,1.9658203-0.6220703,3.8330078-1.7988281,5.3994141   c-0.3310547,0.4414062-0.2421875,1.0683594,0.1992188,1.4003906c0.4414062,0.3310547,1.0693359,0.2421875,1.4003906-0.1992188   C28.2392578,15.6845703,29,13.4023438,29,11c0-6.0654297-4.9345703-11-11-11S7,4.9345703,7,11   c0,2.4023438,0.7607422,4.6845703,2.2001953,6.6005859C9.3964844,17.8623047,9.6962891,18,10.0004883,18z"></path><path d="M31.5087891,19.8466797c-0.8320312-1.2119141-2.5009766-1.5986328-3.7880859-0.8857422L20.1835938,23h-6.9663086   c-0.5522461,0-1,0.4472656-1,1s0.4477539,1,1,1h7.2172852c0.1650391,0,0.3271484-0.0410156,0.4726562-0.1181641   l7.7705078-4.1640625c0.40625-0.2255859,0.9277344-0.1113281,1.1826172,0.2617188   c0.125,0.1826172,0.1679688,0.3994141,0.1201172,0.6103516c-0.0488281,0.2207031-0.1894531,0.4082031-0.3945312,0.5273438   l-12.4121094,7.2226562c-0.6708984,0.3925781-1.4648438,0.5253906-2.2363281,0.375l-8.7470703-1.6962891   C6.1253662,28.0055542,6.0638428,28.0194702,6,28.0193481V22h9c0.5522461,0,1-0.4472656,1-1s-0.4477539-1-1-1H6v-1   c0-0.5527344-0.4477539-1-1-1H1c-0.5522461,0-1,0.4472656-1,1v12c0,0.5527344,0.4477539,1,1,1h4c0.5522461,0,1-0.4472656,1-1   v-0.9816284l8.5566406,1.6593628c0.3330078,0.0644531,0.668457,0.0966797,1.0029297,0.0966797   c0.9174805,0,1.8222656-0.2402344,2.6210938-0.7060547l12.4111328-7.2226562   c0.6816406-0.3955078,1.1699219-1.0585938,1.3408203-1.8164062C32.1005859,21.2792969,31.9462891,20.4833984,31.5087891,19.8466797   z M4,30H2V20h2V30z"></path><path d="M18,8c0.3310547,0,0.5996094,0.2685547,0.5996094,0.5996094c0,0.5527344,0.4472656,1,1,1s1-0.4472656,1-1   c0-1.0792236-0.6613159-2.0057983-1.5996094-2.3984375V6c0-0.5527344-0.4472656-1-1-1s-1,0.4472656-1,1v0.2011719   c-0.9385376,0.3926392-1.6000977,1.3191528-1.6000977,2.3984375v0.6113281c0,0.9912109,0.550293,1.8818359,1.4375,2.3261719   l1.4301758,0.7148438c0.2050781,0.1015625,0.3320312,0.3076172,0.3320312,0.5371094v0.6113281   C18.5996094,13.7314453,18.3310547,14,18,14s-0.6005859-0.2685547-0.6005859-0.5996094c0-0.5527344-0.4472656-1-0.9995117-1   s-1,0.4472656-1,1c0,1.0792847,0.6615601,2.0057983,1.6000977,2.3984375V16c0,0.5527344,0.4472656,1,1,1s1-0.4472656,1-1   v-0.2011719c0.9382935-0.3926392,1.5996094-1.3192139,1.5996094-2.3984375v-0.6113281   c0-0.9912109-0.5498047-1.8818359-1.4375-2.3261719l-1.4296875-0.7148438   c-0.2050781-0.1025391-0.3330078-0.3085938-0.3330078-0.5371094V8.5996094C17.3994141,8.2685547,17.6689453,8,18,8z"></path></g></svg>